<?xml version="1.0" encoding="UTF-8" standalone="no"?>
<!DOCTYPE svg PUBLIC "-//W3C//DTD SVG 1.1//EN" "http://www.w3.org/Graphics/SVG/1.1/DTD/svg11.dtd">
<svg xmlns="http://www.w3.org/2000/svg">
<metadata/>
<defs>
<font id="pslkandaregular" horiz-adv-x="0">
<font-face units-per-em="2048" ascent="1638" descent="-410"/>
<missing-glyph horiz-adv-x="690"/>
<glyph unicode=";;Trademark;;" horiz-adv-x="1993" d="M88 1137q0 28 33 28h801q30 0 30 -28q0 -33 -30 -33h-371v-506q0 -14 -31 -14t-31 14v506h-368q-33 0 -33 33zM1030 618v521q0 28 31 28q18 0 39 -12l362 -510l363 510q20 12 41 12q28 0 28 -28v-521q0 -34 -30 -34q-31 0 -31 34v459l-342 -485q-10 -10 -29 -10 q-18 0 -28 10l-340 485v-459q0 -34 -31 -34q-33 0 -33 34z"/>
<glyph unicode=";;Multiply;;" horiz-adv-x="1083" d="M225 293q0 10 11 20l262 262l-262 261q-11 10 -11 20q0 12 11 23q12 12 22 12t23 -12l260 -261l262 261q10 12 20 12q13 0 23 -12q10 -11 10 -23q0 -10 -10 -20l-260 -261l260 -262q10 -10 10 -20q0 -12 -10 -23q-10 -12 -23 -12q-10 0 -20 12l-262 260l-260 -260 q-13 -12 -23 -12t-22 12q-11 11 -11 23z"/>
<glyph unicode=";;Divide;;" horiz-adv-x="1292" d="M215 575q0 31 31 31h801q30 0 30 -31q0 -30 -30 -30h-801q-31 0 -31 30zM586 307q0 15 7 28t20.5 20t25.5 7q14 0 27.5 -7t20.5 -20t7 -28q0 -14 -6 -27.5t-20.5 -20.5t-28.5 -7q-12 0 -25.5 7t-20.5 20.5t-7 27.5zM586 864q0 15 7 28t20.5 20.5t25.5 7.5q14 0 27.5 -7.5 t20.5 -20.5t7 -28q0 -12 -6 -25.5t-20.5 -20.5t-28.5 -7q-12 0 -25.5 7t-20.5 20.5t-7 25.5z"/>
<glyph unicode="ฤา" horiz-adv-x="1160" d="M55 631q11 90 103 146.5t215 56.5q133 0 217 -58q96 -67 96 -194v-826h-53v811q0 217 -262 217q-109 0 -181.5 -44t-78.5 -97q67 -41 67 -78q0 -14 -26.5 -47t-26.5 -57v-412h106v-49h-159v461q0 31 27.5 63.5t27.5 42.5q0 21 -72 64zM761 770v49q31 6 62 6q92 0 154 -41 q71 -47 71 -135v-893h-53v873q0 145 -174 145q-29 0 -60 -4z"/>
<glyph unicode="ฦา" horiz-adv-x="1215" d="M10 0v49h72v412q0 31 27.5 63.5t27.5 42.5q0 21 -71 64q10 90 102 146.5t215 56.5q133 0 217 -58q96 -67 96 -194v-826h-53v811q0 217 -262 217q-109 0 -181.5 -44t-78.5 -97q67 -41 67 -78q0 -14 -26.5 -47t-26.5 -57v-461h-125zM802 770v49q31 6 62 6q92 0 154 -41 q71 -47 71 -135v-893h-53v873q0 145 -174 145q-29 0 -60 -4z"/>
<glyph unicode="fi" horiz-adv-x="595" d="M0 649v45h123v148q0 123 133 135q33 4 76 -8v-47q-66 18 -109 2q-51 -21 -51 -82v-148h141v-45h-141v-649h-49v649h-123zM395 0v694h51v-694h-51zM395 825v140h51v-140h-51z"/>
<glyph unicode="fl" horiz-adv-x="557" d="M0 649v45h123v148q0 123 133 135q33 4 76 -8v-47q-66 18 -109 2q-51 -21 -51 -82v-148h141v-45h-141v-649h-49v649h-123zM404 0v965h51v-965h-51z"/>
<glyph unicode="ffi" horiz-adv-x="978" d="M0 649v45h123v148q0 123 133 135q33 4 76 -8v-47q-66 18 -109 2q-51 -21 -51 -82v-148h141v-45h-141v-649h-49v649h-123zM389 649v45h123v148q0 123 133 135q33 4 76 -8v-47q-66 18 -109 2q-51 -21 -51 -82v-148h141v-45h-141v-649h-49v649h-123zM784 0v694h51v-694h-51z M784 825v140h51v-140h-51z"/>
<glyph unicode="ffl" horiz-adv-x="939" d="M0 649v45h123v148q0 123 133 135q33 4 76 -8v-47q-66 18 -109 2q-51 -21 -51 -82v-148h141v-45h-141v-649h-49v649h-123zM389 649v45h123v148q0 123 133 135q33 4 76 -8v-47q-66 18 -109 2q-51 -21 -51 -82v-148h141v-45h-141v-649h-49v649h-123zM784 0v965h51v-965h-51z "/>
<glyph unicode="&#xD;" horiz-adv-x="580"/>
<glyph unicode=" " horiz-adv-x="690"/>
<glyph unicode="&#9;" horiz-adv-x="690"/>
<glyph unicode=" " horiz-adv-x="690"/>
<glyph unicode="!" horiz-adv-x="350" d="M141 0v139h68v-139h-68zM143 614v351h66v-351l-16 -366h-33z"/>
<glyph unicode="&quot;" horiz-adv-x="426" d="M109 655v310h51v-310h-51zM266 655v310h51v-310h-51z"/>
<glyph unicode="#" horiz-adv-x="752" d="M41 311v45h166q16 117 31 234h-160v45h168l41 297h45l-43 -297h227l43 297h45l-43 -297h150v-45h-156l-33 -234h152v-45h-158l-43 -311h-45l43 311h-227l-43 -311h-45q22 156 43 311h-158zM250 356h227l33 234h-227z"/>
<glyph unicode="$" horiz-adv-x="737" d="M16 317h50q0 -274 276 -288v448q-152 33 -211 76q-86 59 -86 180q0 244 297 254v109h41v-109q295 -10 309 -297h-53q4 238 -256 248v-418q164 -35 233 -82q99 -65 99 -190q0 -137 -103 -207q-86 -57 -229 -61v-119h-41v119q-147 6 -236 88q-96 90 -90 249zM96 733 q0 -94 60 -139q49 -37 186 -66v410q-246 -12 -246 -205zM383 29q281 8 281 227q0 98 -89 150q-57 32 -192 63v-440z"/>
<glyph unicode="%" horiz-adv-x="1051" d="M53 705q0 100 62.5 171.5t165.5 71.5q104 0 163.5 -65.5t59.5 -163.5q0 -105 -64.5 -179.5t-160.5 -74.5q-95 0 -160.5 71.5t-65.5 168.5zM102 705q0 -78 50.5 -135.5t123.5 -57.5q76 0 125.5 60.5t49.5 142.5q0 78 -48.5 133t-121.5 55q-78 0 -128.5 -58.5t-50.5 -139.5 zM186 -31l627 996h53l-624 -996h-56zM547 221q0 101 62.5 172.5t164.5 71.5q105 0 164 -65.5t59 -163.5q0 -105 -64.5 -178.5t-160.5 -73.5q-94 0 -159.5 70.5t-65.5 166.5zM596 221q0 -78 50 -135t124 -57q76 0 125 60.5t49 141.5q0 78 -48 133.5t-122 55.5 q-78 0 -128 -58.5t-50 -140.5z"/>
<glyph unicode="&amp;" horiz-adv-x="801" d="M59 219q0 96 53.5 163t196.5 148q-39 52 -78 105q-55 84 -55 151q0 68 61.5 115t143.5 47q203 0 203 -180q0 -76 -64 -143q-39 -39 -137 -107l231 -285q31 74 31 162h53q-8 -110 -51 -200l158 -195h-70l-117 143q-102 -157 -272 -157q-131 0 -209 63.5t-78 169.5z M109 219q0 -84 71.5 -137t163.5 -53q156 0 244 153l-250 312q-141 -91 -164 -113q-65 -62 -65 -162zM229 780q0 -90 125 -221q178 98 178 215q0 57 -45 94t-106 37q-59 0 -105.5 -34.5t-46.5 -90.5z"/>
<glyph unicode="'" horiz-adv-x="276" d="M113 655v310h51v-310h-51z"/>
<glyph unicode="(" horiz-adv-x="365" d="M92 401q0 353 195 625h51q-111 -168 -152 -300t-41 -329q0 -336 193 -604l-53 4q-193 252 -193 604z"/>
<glyph unicode=")" horiz-adv-x="365" d="M27 -207q192 268 192 604q0 197 -41 329t-151 300h51q194 -272 194 -625q0 -352 -192 -604z"/>
<glyph unicode="*" horiz-adv-x="487" d="M41 807l14 41l164 -53v172h47v-172l162 53l16 -41l-159 -57l94 -136l-31 -30l-104 137l-109 -137l-35 30l105 136z"/>
<glyph unicode="+" horiz-adv-x="748" d="M61 315v52h287v284h51v-284h287v-52h-287v-288h-51v288h-287z"/>
<glyph unicode="," horiz-adv-x="289" d="M78 49q0 25 19.5 45.5t45.5 20.5q78 0 78 -88q0 -103 -102 -166l-31 20q78 49 86 119q-16 -8 -37 -8q-22 0 -40.5 16.5t-18.5 40.5z"/>
<glyph unicode="-" horiz-adv-x="475" d="M94 342v51h289v-51h-289z"/>
<glyph unicode="." horiz-adv-x="289" d="M82 51q0 64 61 64q64 0 64 -64q0 -59 -64 -59q-61 0 -61 59z"/>
<glyph unicode="/" horiz-adv-x="451" d="M-16 -20l428 1007h55l-430 -1007h-53z"/>
<glyph unicode="0" horiz-adv-x="748" d="M35 479q0 201 76 324q88 145 262 145q178 0 266 -147q72 -121 72 -297q0 -518 -338 -518t-338 493zM88 477q0 -448 285 -448q286 0 286 473q0 164 -65 274q-76 129 -221 129q-150 0 -226 -139q-59 -113 -59 -289z"/>
<glyph unicode="1" horiz-adv-x="748" d="M164 758v39q139 0 187 25.5t48 99.5v10h45v-932h-51v758h-229z"/>
<glyph unicode="2" horiz-adv-x="748" d="M61 0q-6 125 105 227q35 35 242 176q106 74 151 132q57 73 57 170q0 83 -68.5 141.5t-158.5 58.5q-141 0 -209 -98q-47 -70 -47 -158q0 -20 2 -31h-51q-4 21 -4 46q0 104 63 182q82 102 244 102q127 0 204 -68.5t77 -179.5q0 -108 -60 -188q-41 -57 -149.5 -135 t-220.5 -158q-113 -92 -113 -168h557v-51h-621z"/>
<glyph unicode="3" horiz-adv-x="748" d="M45 307h51q0 -278 283 -278q104 0 182 64.5t78 162.5q0 229 -317 217v45q141 -8 216.5 45t75.5 158q0 82 -69.5 133t-159.5 51q-129 0 -201.5 -75.5t-68.5 -190.5h-47q-5 135 79 222t238 87q119 0 200 -64.5t81 -168.5q0 -84 -50.5 -143.5t-132.5 -73.5 q88 -11 146.5 -77.5t58.5 -164.5q0 -119 -87 -194.5t-222 -75.5q-334 0 -334 321z"/>
<glyph unicode="4" horiz-adv-x="748" d="M37 238v51l455 643h51v-649h157v-45h-157v-238h-51v238h-455zM88 283h404v579z"/>
<glyph unicode="5" horiz-adv-x="748" d="M49 285h49q-2 -119 80 -191q74 -65 189 -65q110 0 188 80.5t78 193.5q0 115 -75 197t-179 82q-90 0 -150 -35q-45 -27 -102 -96h-51l96 481h471v-49h-432l-76 -369q92 113 246 113q127 0 215 -91.5t88 -230.5t-91 -229t-224 -90q-138 0 -230 77q-102 87 -90 222z"/>
<glyph unicode="6" horiz-adv-x="748" d="M53 434q0 123 29 238q70 276 315 276q129 0 205 -74q68 -65 82 -172h-49q-41 203 -238 203q-166 0 -239 -170q-56 -129 -49 -319q73 200 288 200q129 0 216 -92t87 -233q0 -131 -89 -218t-230 -87q-266 0 -318 311q-10 63 -10 137zM123 297q0 -107 73.5 -187.5 t188.5 -80.5q109 0 186.5 77.5t77.5 184.5q0 115 -75.5 197.5t-188.5 82.5q-109 0 -185.5 -78.5t-76.5 -195.5z"/>
<glyph unicode="7" horiz-adv-x="748" d="M74 883v49h602v-53q-47 -48 -90 -101q-105 -127 -176 -264q-119 -227 -136 -514h-59q4 86 21 170q38 203 129 367q86 157 258 346h-549z"/>
<glyph unicode="8" horiz-adv-x="748" d="M51 254q0 115 62 182q55 62 147 72q-174 41 -174 211q0 106 80 168.5t207 62.5q125 0 207 -57t82 -160q0 -180 -173 -223q95 -12 151 -77.5t56 -170.5q0 -125 -87 -200.5t-232 -75.5q-139 0 -227 63q-99 72 -99 205zM102 260q0 -100 72 -165.5t199 -65.5t202 67 q70 64 70 162q0 227 -272 227q-135 0 -207 -65q-64 -60 -64 -160zM135 721q0 -82 63.5 -136.5t172.5 -54.5q114 0 177.5 53.5t63.5 137.5q0 82 -63.5 133t-175.5 51q-115 0 -176.5 -51t-61.5 -133z"/>
<glyph unicode="9" horiz-adv-x="748" d="M59 637q2 133 88 222t228 89q338 0 323 -495q-6 -199 -75 -320q-88 -147 -261 -147q-120 0 -201 66.5t-89 176.5h53q8 -86 73.5 -143t151.5 -57q303 0 299 479q-76 -193 -274 -193q-142 0 -230 93.5t-86 228.5zM111 635q0 -113 77.5 -194t186.5 -81q110 0 187 80t77 195 t-77 193.5t-187 78.5q-109 0 -186.5 -79.5t-77.5 -192.5z"/>
<glyph unicode=":" horiz-adv-x="289" d="M82 51q0 64 61 64q64 0 64 -64q0 -59 -64 -59q-61 0 -61 59zM82 598q0 64 61 64q64 0 64 -64q0 -61 -64 -61q-61 0 -61 61z"/>
<glyph unicode=";" horiz-adv-x="289" d="M78 49q0 25 19.5 45.5t45.5 20.5q78 0 78 -88q0 -103 -102 -166l-31 20q78 49 86 119q-16 -8 -37 -8q-22 0 -40.5 16.5t-18.5 40.5zM82 598q0 64 61 64q64 0 64 -64q0 -61 -64 -61q-61 0 -61 61z"/>
<glyph unicode="&lt;" horiz-adv-x="811" d="M61 307v72l689 315v-55l-644 -295l644 -299v-53z"/>
<glyph unicode="=" horiz-adv-x="748" d="M61 184v52h625v-52h-625zM61 446v52h625v-52h-625z"/>
<glyph unicode="&gt;" horiz-adv-x="811" d="M61 -8v53l644 295l-644 299v55l689 -319v-70z"/>
<glyph unicode="?" horiz-adv-x="686" d="M55 713q0 125 79 199.5t212 74.5q119 0 198 -65.5t79 -173.5q0 -101 -66 -175q-59 -55 -121 -110q-65 -64 -65 -139v-80h-52v82q0 84 66 151q59 55 121 111q65 71 65 160q0 86 -62.5 139t-164.5 53q-121 0 -180.5 -64.5t-59.5 -160.5q0 -25 5 -49h-52q-2 24 -2 47z M281 55q0 68 65 68q66 0 66 -66q0 -28 -20.5 -47.5t-47.5 -17.5q-63 4 -63 63z"/>
<glyph unicode="@" horiz-adv-x="1094" d="M61 502q9 203 156.5 344t343.5 141q217 0 350 -129q123 -119 123 -289q0 -84 -33 -161q-43 -101 -119.5 -165.5t-156.5 -64.5q-84 0 -88 96q-43 -51 -76 -69q-43 -25 -119 -25q-63 0 -112 58.5t-49 152.5q0 51 16 109q35 125 111 200q84 84 198 84q113 0 146 -125l32 99 h56l-142 -439q-6 -22 -6 -38q0 -54 56 -54q32 0 57 17q180 118 180 340q0 155 -137 262q-129 98 -289 98q-170 0 -305 -129q-137 -135 -143 -315q-7 -191 125.5 -334t316.5 -143q127 0 235 63q97 55 148 141h59q-53 -108 -166 -176q-122 -71 -278 -71q-217 0 -358 155 q-140 152 -132 367zM334 391q0 -76 33.5 -121t81.5 -45q77 0 130.5 48.5t106.5 172.5q27 64 27 127q0 72 -30 119t-75 47q-176 0 -252 -223q-22 -65 -22 -125z"/>
<glyph unicode="A" horiz-adv-x="793" d="M-14 0l376 965h66l375 -965h-62l-118 309h-457l-121 -309h-59zM184 360h420l-207 549z"/>
<glyph unicode="B" horiz-adv-x="836" d="M84 0v965h356q289 0 320 -230q2 -13 2 -25q0 -62 -41 -116q-53 -72 -148 -86q99 -12 159.5 -79t60.5 -159q0 -131 -101 -207q-84 -63 -198 -63h-410zM143 51h320q125 0 198.5 56.5t73.5 162.5q0 205 -272 205h-320v-424zM143 526h326q98 0 162 47q71 54 71 152 q0 96 -71 145q-62 43 -160 43h-328v-387z"/>
<glyph unicode="C" horiz-adv-x="934" d="M47 487v7q0 210 125 350q127 142 324 143q196 0 303 -133q61 -76 82 -176h-58q-24 117 -106 184q-90 74 -223 74q-175 0 -281.5 -130t-106.5 -317q0 -190 99 -319q108 -141 293 -141q145 0 245 121q86 106 93 225h59q-10 -137 -98 -250q-115 -145 -310 -145 q-202 0 -325 153q-113 143 -115 354z"/>
<glyph unicode="D" horiz-adv-x="883" d="M84 0v965h317q191 0 301 -107q121 -117 129 -338q1 -21 1 -41q0 -217 -109 -342q-119 -137 -348 -137h-291zM143 51h256q191 0 291 135q83 113 83 290q0 23 -1 46q-24 391 -393 391h-236v-862z"/>
<glyph unicode="E" horiz-adv-x="743" d="M84 0v965h635v-52h-576v-387h541v-51h-541v-424h584v-51h-643z"/>
<glyph unicode="F" horiz-adv-x="680" d="M84 0v965h592v-52h-533v-387h482v-51h-482v-475h-59z"/>
<glyph unicode="G" horiz-adv-x="981" d="M49 471q0 211 113 356q125 160 334 160q221 0 329 -160q45 -67 64 -161h-55q-29 129 -124.5 199.5t-230.5 70.5q-170 0 -276 -145q-99 -134 -99 -320q0 -195 109 -318.5t285 -123.5q164 0 259 99t97 294h-348v51h399v-473h-51v203q-102 -223 -360 -223q-203 0 -326 141 q-119 135 -119 350z"/>
<glyph unicode="H" horiz-adv-x="887" d="M84 0v965h59v-439h605v439h57v-965h-57v475h-605v-475h-59z"/>
<glyph unicode="I" horiz-adv-x="225" d="M84 0v965h59v-965h-59z"/>
<glyph unicode="J" horiz-adv-x="637" d="M29 307h55v-15q0 -131 33 -186q45 -77 174 -77q110 0 157.5 55t47.5 176v705h57v-705q0 -283 -264 -283q-144 0 -211 93q-51 71 -51 187q0 24 2 50z"/>
<glyph unicode="K" horiz-adv-x="813" d="M84 0v965h59v-555l596 555h76l-434 -404l461 -561h-76l-426 522l-197 -184v-338h-59z"/>
<glyph unicode="L" horiz-adv-x="662" d="M84 0v965h59v-914h535v-51h-594z"/>
<glyph unicode="M" horiz-adv-x="1071" d="M84 0v965h82l373 -902l366 902h82v-965h-57v895l-365 -895h-57l-365 893v-893h-59z"/>
<glyph unicode="N" horiz-adv-x="897" d="M84 0v965h72l600 -885v885h59v-965h-67l-605 893v-893h-59z"/>
<glyph unicode="O" horiz-adv-x="981" d="M41 487q0 215 123 357.5t328 142.5q194 0 322 -137t128 -344q0 -225 -108 -369q-123 -160 -345 -160q-208 0 -333 154q-115 145 -115 356zM100 487q0 -194 101 -323q108 -137 286 -137q189 0 301 149q96 125 96 297q0 16 -1 33q-9 180 -109 299q-108 131 -282 131 q-183 0 -291 -137q-101 -125 -101 -312z"/>
<glyph unicode="P" horiz-adv-x="782" d="M84 0v965h405q138 0 207 -76q64 -70 64 -189q0 -127 -78 -198.5t-221 -71.5h-318v-430h-59zM143 481h322q115 0 176 59.5t61 155.5q0 217 -233 217h-326v-432z"/>
<glyph unicode="Q" horiz-adv-x="981" d="M41 487q0 215 123 357.5t328 142.5q194 0 322 -137t128 -344q0 -258 -141 -406l145 -106l-33 -39l-155 104q-111 -82 -269 -82q-208 0 -333 154q-115 145 -115 356zM100 487q0 -194 101 -323q108 -137 286 -137q125 0 224 71l-142 105l31 41l152 -109q132 132 132 341 q0 15 -1 30q-9 180 -109 299q-108 131 -282 131q-183 0 -291 -137q-101 -125 -101 -312z"/>
<glyph unicode="R" horiz-adv-x="836" d="M84 0v965h410q129 0 205.5 -62.5t76.5 -175.5q0 -221 -205 -260q111 -12 154 -88q37 -64 37 -205v-47q0 -92 31 -127h-64q-27 39 -27 121v121q0 196 -225 196h-334v-438h-59zM143 492h324q252 0 252 213q0 208 -268 208h-308v-421z"/>
<glyph unicode="S" horiz-adv-x="836" d="M51 319h60q-1 -13 -1 -25q0 -116 77 -186q85 -78 239 -79q127 0 205 47q96 59 96 178q0 100 -102 154q-70 36 -242 69q-162 31 -227 86q-76 62 -76 189q0 108 104 176q92 59 219 59q207 0 299 -125q56 -78 56 -172h-56q-8 111 -77 174q-80 72 -222 72q-104 0 -178 -45 q-86 -51 -86 -139q0 -113 78 -164q45 -31 176 -58q219 -47 289 -90q100 -63 100 -202q0 -123 -99 -190.5t-257 -67.5q-197 0 -295 108q-80 88 -80 231z"/>
<glyph unicode="T" horiz-adv-x="688" d="M-16 913v52h723v-52h-336v-913h-58v913h-329z"/>
<glyph unicode="U" horiz-adv-x="891" d="M84 381v584h59v-584q0 -354 297 -354q310 0 310 354v584h57v-584q0 -404 -367 -404q-356 0 -356 404z"/>
<glyph unicode="V" horiz-adv-x="737" d="M-16 965h59l326 -916l325 916h58l-351 -965h-67z"/>
<glyph unicode="W" horiz-adv-x="1178" d="M-6 965h59l246 -904l252 904h74l256 -902l243 902h62l-273 -965h-65l-262 920l-254 -920h-68z"/>
<glyph unicode="X" horiz-adv-x="737" d="M-20 0l354 498l-332 467h68l297 -420l305 420h69l-333 -467l352 -498h-72l-321 453l-320 -453h-67z"/>
<glyph unicode="Y" horiz-adv-x="760" d="M-27 965h66l340 -508l344 508h65l-380 -562v-403h-58v403z"/>
<glyph unicode="Z" horiz-adv-x="711" d="M0 0v49l637 864h-600v52h663v-52l-643 -862h656v-51h-713z"/>
<glyph unicode="[" horiz-adv-x="326" d="M127 -205v1231h184v-43h-133v-1145h133v-43h-184z"/>
<glyph unicode="\" horiz-adv-x="451" d="M-16 987h53l430 -1007h-55z"/>
<glyph unicode="]" horiz-adv-x="326" d="M14 -162h133v1145h-133v43h185v-1231h-185v43z"/>
<glyph unicode="^" horiz-adv-x="811" d="M53 319l318 613h71l316 -613h-56l-294 570l-299 -570h-56z"/>
<glyph unicode="_" horiz-adv-x="748" d="M0 -98h748v-52h-748v52z"/>
<glyph unicode="`" horiz-adv-x="225" d="M-39 987h68l161 -188h-49z"/>
<glyph unicode="a" horiz-adv-x="662" d="M41 184q0 181 229 199q148 12 181 23q73 18 73 77v43q0 138 -196 138q-181 0 -201 -181h-51q4 111 74 172q65 56 169 56q103 0 173 -39q81 -45 81 -131v-428q0 -68 48 -68q14 0 34 6v-43q-18 -8 -43 -8q-88 0 -88 82v57q-65 -151 -254 -151q-229 0 -229 196zM90 184 q0 -71 50 -113t139 -42q108 0 178 75q67 70 67 172v121q-24 -35 -239 -57q-195 -21 -195 -156z"/>
<glyph unicode="b" horiz-adv-x="737" d="M86 0v965h51v-418q74 164 258 164q148 0 228 -105q69 -92 69 -235q0 -185 -80 -285t-223 -100q-174 0 -252 170v-156h-51zM139 371q0 -150 64 -242q67 -100 186 -100q133 0 201 112q53 88 53 217t-59 213q-70 95 -195 95q-121 0 -188 -91q-62 -81 -62 -204z"/>
<glyph unicode="c" horiz-adv-x="688" d="M45 350q0 150 76 250q86 111 233 111q133 0 209 -70q68 -63 74 -162h-49q-25 187 -234 187q-116 0 -188 -92.5t-72 -223.5q0 -147 68.5 -234t191.5 -87q97 0 162.5 60.5t77.5 154.5h51q-14 -111 -88 -183q-82 -77 -203 -77q-143 0 -226 101t-83 265z"/>
<glyph unicode="d" horiz-adv-x="737" d="M45 365q0 151 72 245q80 101 223 101q88 0 159.5 -43t98.5 -121h2v418h51v-965h-51v156h-2q-14 -52 -66 -101q-77 -69 -192 -69q-107 0 -182 63q-113 98 -113 316zM94 365q0 -138 56 -228q67 -108 190 -108q129 0 199 104q59 90 59 232q0 137 -63 215q-68 86 -195 86 q-115 0 -184 -93q-62 -86 -62 -208z"/>
<glyph unicode="e" horiz-adv-x="688" d="M45 340q0 156 76 258q82 113 227 113q168 0 246 -136q52 -91 52 -199q0 -18 -1 -36h-551q0 -141 67.5 -226t186.5 -85q103 0 168 65q55 56 72 142h51q-45 -250 -291 -250q-153 0 -233 106q-70 94 -70 248zM94 385h500q0 100 -57 182q-72 99 -189 99q-119 0 -192 -103 q-62 -86 -62 -178z"/>
<glyph unicode="f" horiz-adv-x="319" d="M0 649v45h123v148q0 123 133 135q8 1 17 1q27 0 59 -9v-47q-35 10 -63 10q-26 0 -46 -8q-51 -21 -51 -82v-148h141v-45h-141v-649h-49v649h-123z"/>
<glyph unicode="g" horiz-adv-x="711" d="M45 377q0 143 81 238.5t210 95.5q186 0 250 -160v143h51v-653q0 -303 -301 -303q-240 0 -260 215h53q0 -66 49 -115q58 -57 158 -57q250 0 250 260v145q-76 -159 -250 -159q-150 0 -225 108q-66 92 -66 242zM94 377q0 -131 60 -215q63 -92 182 -92q115 0 182.5 81.5 t67.5 225.5q0 121 -64 201q-67 88 -186 88q-111 0 -178 -91q-64 -81 -64 -198z"/>
<glyph unicode="h" horiz-adv-x="688" d="M74 0v965h51v-418q61 164 262 164q227 0 227 -267v-444h-53v430q0 236 -180 236q-127 0 -191.5 -81t-64.5 -200v-385h-51z"/>
<glyph unicode="i" horiz-adv-x="223" d="M86 0v694h51v-694h-51zM86 825v140h51v-140h-51z"/>
<glyph unicode="j" horiz-adv-x="223" d="M-43 -203q15 -1 27 -1q45 0 65 16q37 26 37 118v764h51v-764q0 -106 -44 -145q-37 -32 -106 -32q-14 0 -30 1v43zM86 825v140h51v-140h-51z"/>
<glyph unicode="k" horiz-adv-x="614" d="M76 0v965h51v-639l422 368h69l-294 -258l317 -436h-68l-288 395l-158 -135v-260h-51z"/>
<glyph unicode="l" horiz-adv-x="223" d="M86 0v965h51v-965h-51z"/>
<glyph unicode="m" horiz-adv-x="1053" d="M76 0v694h51v-141q23 72 83 115t130 43q164 0 211 -148q53 148 217 148q211 0 211 -236v-475h-49v475q0 191 -162 191q-94 0 -155.5 -65.5t-61.5 -182.5v-418h-49v465q0 201 -162 201q-92 0 -152.5 -73t-60.5 -157v-436h-51z"/>
<glyph unicode="n" horiz-adv-x="688" d="M74 0v694h51v-147q29 78 102 123q68 41 146 41q241 0 241 -258v-453h-53v453q0 213 -188 213q-117 0 -187 -86q-61 -78 -61 -181v-399h-51z"/>
<glyph unicode="o" horiz-adv-x="711" d="M43 356q0 146 80 246q88 109 231 109q142 0 228 -100.5t86 -254.5q0 -166 -83 -269t-231 -103q-139 0 -225 105.5t-86 266.5zM92 356q0 -135 64 -225q71 -102 198 -102q125 0 199 102q65 92 65 225q0 125 -67 213q-76 97 -197 97q-114 0 -188 -92.5t-74 -217.5z"/>
<glyph unicode="p" horiz-adv-x="737" d="M86 -246v940h51v-155q78 172 252 172q139 0 221 -96.5t82 -278.5q0 -146 -74 -242q-81 -108 -229 -108q-201 0 -252 161v-393h-51zM137 324q0 -129 60 -209q67 -86 192 -86t195 96q59 82 59 211t-53 217q-68 113 -201 113q-252 0 -252 -342z"/>
<glyph unicode="q" horiz-adv-x="737" d="M45 336q0 184 84 282q78 93 219 93q174 0 252 -172v155h51v-940h-51v393q-90 -161 -252 -161q-147 0 -229 108q-74 96 -74 242zM94 336q0 -129 60 -211q69 -96 194 -96q123 0 193 102q59 90 59 223q0 127 -63 215q-70 97 -189 97q-133 0 -201 -107q-53 -88 -53 -223z"/>
<glyph unicode="r" horiz-adv-x="367" d="M74 0v694h51v-153q68 157 264 157v-51q-11 1 -22 1q-103 0 -169 -72q-72 -78 -73 -197v-379h-51z"/>
<glyph unicode="s" horiz-adv-x="637" d="M49 231h49q0 -77 56 -137q63 -65 163 -65q224 0 224 149q0 64 -53.5 99.5t-182.5 58.5q-233 43 -233 186q0 189 245 189q252 0 252 -222h-49q0 177 -203 177q-194 0 -194 -144q0 -90 182 -133q170 -41 203 -59q82 -43 82 -152q0 -192 -273 -192q-129 0 -202 75 q-66 68 -66 170z"/>
<glyph unicode="t" horiz-adv-x="344" d="M0 649v45h127v217h49v-217h150v-45h-150v-495q0 -110 119 -111q14 0 29 2v-45q-12 -1 -23 -1q-174 0 -174 148v502h-127z"/>
<glyph unicode="u" horiz-adv-x="688" d="M74 252v442h51v-442q0 -223 188 -223q121 0 189 88q59 78 59 184v393h53v-694h-53v152q-59 -166 -248 -166q-239 0 -239 266z"/>
<glyph unicode="v" horiz-adv-x="588" d="M0 694h55l248 -637l234 637h53l-256 -694h-64z"/>
<glyph unicode="w" horiz-adv-x="934" d="M0 694h51l195 -639l186 639h68l188 -639l191 639h57l-219 -694h-64l-186 635l-191 -635h-63z"/>
<glyph unicode="x" horiz-adv-x="588" d="M-6 0l264 365l-248 329h70l215 -291l213 291h65l-245 -329l268 -365h-68l-233 326l-240 -326h-61z"/>
<glyph unicode="y" horiz-adv-x="588" d="M-6 694h57l254 -631l234 631h55l-311 -815q-33 -86 -84 -108q-35 -17 -136 -17v43q82 0 119 22.5t64 100.5l30 84z"/>
<glyph unicode="z" horiz-adv-x="563" d="M12 0v49l457 600h-420v45h483v-49l-460 -600h479v-45h-539z"/>
<glyph unicode="{" horiz-adv-x="410" d="M88 373q100 43 100 256v184q0 64 25 113q35 67 104 67h58v-43h-37q-98 0 -98 -153v-176q0 -89 -17 -136q-20 -59 -78 -114q95 -68 95 -221v-189q0 -164 102 -164h33v-43h-39q-148 0 -148 195v190q0 187 -100 234z"/>
<glyph unicode="|" horiz-adv-x="301" d="M125 -20v1007h51v-1007h-51z"/>
<glyph unicode="}" horiz-adv-x="410" d="M33 -203h33q102 0 102 164v189q0 153 94 221q-57 55 -78 114q-16 47 -16 136v176q0 153 -98 153h-37v43h57q70 0 105 -67q24 -49 24 -113v-184q0 -213 100 -256q-100 -47 -100 -234v-190q0 -195 -147 -195h-39v43z"/>
<glyph unicode="~" horiz-adv-x="811" d="M98 301q62 111 174 111q56 0 146 -46.5t143 -46.5q55 0 115 103l37 -41q-80 -113 -156 -113q-59 0 -161.5 46t-123.5 46q-82 0 -135 -100z"/>
<glyph unicode="­" horiz-adv-x="475" d="M94 342v51h289v-51h-289z"/>
<glyph unicode="Þ" horiz-adv-x="1237" d="M55 631q11 90 103 146.5t215 56.5q133 0 217 -58q96 -67 96 -194v-355q0 -190 193 -190q94 0 159 55q74 64 74 170v557h53v-758q0 -114 -84 -178q-73 -53 -188 -53h-260v49h260q96 0 157.5 45t61.5 125v47q-78 -106 -248 -106q-231 0 -231 219v358q0 217 -262 217 q-109 0 -181.5 -44t-78.5 -97q67 -41 67 -78q0 -14 -26.5 -47t-26.5 -57v-412h147v-49h-200v461q0 31 27.5 63.5t27.5 42.5q0 21 -72 64z"/>
<glyph unicode="ญ" horiz-adv-x="1237" d="M55 631q11 90 103 146.5t215 56.5q133 0 217 -58q96 -67 96 -194v-355q0 -190 193 -190q94 0 159 55q74 64 74 170v557h53v-758q0 -114 -84 -178q-73 -53 -188 -53h-260v49h260q96 0 157.5 45t61.5 125v47q-78 -106 -248 -106q-231 0 -231 219v358q0 217 -262 217 q-109 0 -181.5 -44t-78.5 -97q67 -41 67 -78q0 -14 -26.5 -47t-26.5 -57v-412h147v-49h-200v461q0 31 27.5 63.5t27.5 42.5q0 21 -72 64z"/>
<glyph unicode="ÿ" horiz-adv-x="1942"/>
<glyph unicode="Œ" d="M-340 1012v51h33q92 0 92 -72v-20h262v-49h-315v47q0 43 -39 43h-33z"/>
<glyph unicode="" d="M-340 1012v51h33q92 0 92 -72v-20h262v-49h-315v47q0 43 -39 43h-33z"/>
<glyph unicode="œ" d="M-453 1221v45h37q78 0 78 -58v-24h238v-47h-287v45q0 39 -35 39h-31z"/>
<glyph unicode="" d="M-453 1221v45h37q78 0 78 -58v-24h238v-47h-287v45q0 39 -35 39h-31z"/>
<glyph unicode="Š" d="M-389 922v26q0 99 98 99h107v-50h-80q-68 0 -68 -55v-20h-57z"/>
<glyph unicode="" d="M-389 922v26q0 99 98 99h107v-50h-80q-68 0 -68 -55v-20h-57z"/>
<glyph unicode="š" d="M-729 1020q0 51 47 86t131 35h381v-49h-369q-135 0 -135 -72q0 -29 23 -49h102l172 71l174 -71v-49l-174 73l-166 -73h-131q-55 34 -55 98z"/>
<glyph unicode="" d="M-729 1020q0 51 47 86t131 35h381v-49h-369q-135 0 -135 -72q0 -29 23 -49h102l172 71l174 -71v-49l-174 73l-166 -73h-131q-55 34 -55 98z"/>
<glyph unicode="Ÿ" d="M-367 1073v23q0 98 99 98h104v-49h-80q-67 0 -67 -55v-17h-56z"/>
<glyph unicode="" d="M-367 1073v23q0 98 99 98h104v-49h-80q-67 0 -67 -55v-17h-56z"/>
<glyph unicode="Ž" d="M-319 1020v45h98v98h53v-98h98v-45h-98v-98h-53v98h-98z"/>
<glyph unicode="" d="M-319 1020v45h98v98h53v-98h98v-45h-98v-98h-53v98h-98z"/>
<glyph unicode="ž" d="M-356 1214v39h77v78h54v-78h78v-39h-78v-77h-54v77h-77z"/>
<glyph unicode="" d="M-356 1214v39h77v78h54v-78h78v-39h-78v-77h-54v77h-77z"/>
<glyph unicode="ƒ" d="M-788 922v49h458q-6 16 -6 33q0 32 25.5 56.5t60.5 24.5t59.5 -23.5t24.5 -57.5q0 -33 -24.5 -57.5t-59.5 -24.5h-538zM-295 1004q0 -46 43 -46q45 0 45 46q0 43 -45 43q-43 0 -43 -43z"/>
<glyph unicode="" d="M-788 922v49h458q-6 16 -6 33q0 32 25.5 56.5t60.5 24.5t59.5 -23.5t24.5 -57.5q0 -33 -24.5 -57.5t-59.5 -24.5h-538zM-295 1004q0 -46 43 -46q45 0 45 46q0 43 -45 43q-43 0 -43 -43z"/>
<glyph unicode="ˆ" d="M-684 922v65q0 117 131 117h6l96 -70l95 70h8q131 0 131 -117v-16h217v-49h-270v57q0 76 -72 76h-8l-101 -76l-102 76h-6q-72 0 -72 -76v-8h82v-49h-135z"/>
<glyph unicode="" d="M-684 922v65q0 117 131 117h6l96 -70l95 70h8q131 0 131 -117v-16h217v-49h-270v57q0 76 -72 76h-8l-101 -76l-102 76h-6q-72 0 -72 -76v-8h82v-49h-135z"/>
<glyph unicode="" d="M-684 922v65q0 117 131 117h6l96 -70l95 70h8q131 0 131 -117v-16h217v-49h-270v57q0 76 -72 76h-8l-101 -76l-102 76h-6q-72 0 -72 -76v-8h82v-49h-135z"/>
<glyph unicode="˜" d="M-502 922v108h56v-59h466v-49h-522z"/>
<glyph unicode="" d="M-502 922v108h56v-59h466v-49h-522z"/>
<glyph unicode="ก" horiz-adv-x="758" d="M55 631q11 90 103 146.5t215 56.5q133 0 217 -58q96 -67 96 -194v-582h-53v567q0 217 -262 217q-109 0 -181.5 -44t-78.5 -97q67 -41 67 -78q0 -14 -26.5 -47t-26.5 -57v-461h-53v461q0 31 27.5 63.5t27.5 42.5q0 21 -72 64z"/>
<glyph unicode="ข" horiz-adv-x="655" d="M59 774v45h74q143 0 143 -94q0 -57 -75.5 -103.5t-75.5 -89.5v-301q0 -196 203 -196q202 0 202 196v588h54v-602q0 -123 -84 -182q-66 -47 -172 -47q-105 0 -172 47q-84 59 -84 182v313q0 68 75.5 114t75.5 79q0 51 -90 51h-74z"/>
<glyph unicode="ฃ" horiz-adv-x="655" d="M41 807l51 18l45 -55l47 49q92 6 92 -94q0 -57 -75.5 -103.5t-75.5 -89.5v-301q0 -196 203 -196q202 0 202 196v588h54v-602q0 -123 -84 -182q-66 -47 -172 -47q-105 0 -172 47q-84 59 -84 182v313q0 68 75.5 114t75.5 79q0 49 -22 49l-68 -72z"/>
<glyph unicode="ค" horiz-adv-x="758" d="M72 0v582q0 125 100 194q84 58 207 58t209 -58q98 -69 98 -194v-582h-53v567q0 109 -76 166q-68 51 -178 51q-111 0 -178 -51q-76 -57 -76 -166v-98h250v-49h-250v-420h-53z"/>
<glyph unicode="ฅ" horiz-adv-x="758" d="M72 0v610q0 90 53 152.5t139 71.5l115 -99l115 99q86 -9 139 -71.5t53 -152.5v-610h-53v600q0 154 -127 184l-127 -114l-127 114q-127 -30 -127 -184v-131h252v-49h-252v-420h-53z"/>
<glyph unicode="ฆ" horiz-adv-x="758" d="M41 807l51 18l51 -55l54 49q100 6 100 -94q0 -61 -86 -114.5t-86 -98.5v-186q0 -90 92 -187q98 -102 215 -102q201 0 201 205v577h53v-588q0 -241 -244 -241q-200 0 -317 198v-188h-53v510q0 68 86 121t86 92q0 49 -31 49l-74 -72z"/>
<glyph unicode="ง" horiz-adv-x="651" d="M0 686l47 31l195 -674q149 16 237 147q78 121 78 287q0 129 -59 209q-68 92 -193 92q-18 0 -39 -2v49q23 2 43 2q150 0 230 -106q71 -94 71 -246q0 -196 -100 -332q-115 -149 -309 -145z"/>
<glyph unicode="จ" horiz-adv-x="680" d="M0 614q8 93 94 156.5t215 63.5q150 0 240 -96.5t90 -268.5q0 -236 -113 -363q-104 -116 -276 -108l-125 500l-29 34h74l121 -487q133 8 214 119.5t81 304.5q0 147 -76 231t-201 84q-100 0 -170.5 -46t-85.5 -124h-53z"/>
<glyph unicode="ฉ" horiz-adv-x="748" d="M18 467v49h117v-274q0 -207 201 -207q119 0 205 78q82 71 82 159v295q0 109 -78 166q-70 51 -187 51q-227 0 -260 -170h-55q12 109 111 168q86 52 204 52q131 0 217 -58q101 -67 101 -194v-582h-53v135q-88 -147 -287 -147q-254 0 -254 241v238h-64z"/>
<glyph unicode="ช" horiz-adv-x="709" d="M72 0v819h53v-770h192q127 0 207 62q90 69 90 202q0 113 -67.5 182.5t-171.5 69.5h-119v49h119q92 0 153 52q70 57 62 153h53q2 -14 2 -28q0 -76 -51 -135.5t-129 -63.5q90 -19 145 -88q58 -76 58 -189q0 -159 -101 -241q-90 -74 -243 -74h-252z"/>
<glyph unicode="ซ" horiz-adv-x="719" d="M10 807l51 18l45 -55l48 49q92 6 92 -94q0 -49 -55.5 -97t-55.5 -96v-483h193q127 0 207 62q90 69 90 202q0 113 -68 182.5t-172 69.5h-98v49h98q92 0 154 52q69 57 61 153h53q2 -14 2 -28q0 -76 -51 -135.5t-129 -63.5q90 -19 146 -88q57 -76 57 -189q0 -159 -100 -241 q-91 -74 -244 -74h-252v530q0 66 55.5 112t55.5 81q0 49 -23 49l-68 -72z"/>
<glyph unicode="ฌ" horiz-adv-x="1237" d="M55 631q11 90 103 146.5t215 56.5q133 0 217 -58q96 -67 96 -194v-310q0 -86 75 -161.5t171 -75.5q180 0 180 205v579h53v-590q0 -239 -233 -239q-164 0 -246 145v-135h-53v567q0 217 -262 217q-109 0 -181.5 -44t-78.5 -97q67 -41 67 -78q0 -14 -26.5 -47t-26.5 -57 v-412h147v-49h-200v461q0 31 27.5 63.5t27.5 42.5q0 21 -72 64z"/>
<glyph unicode="ฎ" horiz-adv-x="768" d="M10 0v49h72v412q0 31 27.5 63.5t27.5 42.5q0 21 -71 64q10 90 102 146.5t215 56.5q133 0 217 -58q96 -67 96 -194v-887h-53l-151 151l-152 -151h-203v49h185l170 168l151 -150v805q0 217 -262 217q-109 0 -181.5 -44t-78.5 -97q67 -41 67 -78q0 -14 -26.5 -47t-26.5 -57 v-461h-125z"/>
<glyph unicode="ฏ" horiz-adv-x="768" d="M10 0v49h72v412q0 31 27.5 63.5t27.5 42.5q0 21 -71 64q10 90 102 146.5t215 56.5q133 0 217 -58q96 -67 96 -194v-887h-53l-106 139l-107 -139l-106 139l-107 -139h-141v49h114l134 168l106 -137l107 137l106 -139v794q0 217 -262 217q-109 0 -181.5 -44t-78.5 -97 q67 -41 67 -78q0 -14 -26.5 -47t-26.5 -57v-461h-125z"/>
<glyph unicode="ฐ" horiz-adv-x="680" d="M0 -256h115l133 147l106 -118l107 118l106 -116v137h-37v49h91v-266h-54l-106 119l-107 -119l-106 119l-107 -119h-141v49zM0 614q8 93 94 156.5t215 63.5q88 0 152 -33q39 26 45 80h59q-2 -60 -59 -107q133 -94 133 -305q0 -236 -113 -363q-104 -116 -276 -108l-125 500 l-29 34h74l121 -487q133 8 214 119.5t81 304.5q0 147 -76 231t-201 84q-100 0 -170.5 -46t-85.5 -124h-53z"/>
<glyph unicode="ฑ" horiz-adv-x="758" d="M20 807l52 18l51 -55l53 49q100 6 100 -94q0 -57 -75.5 -112.5t-75.5 -100.5v-305q31 168 180 418q125 206 223 206q158 0 158 -215v-616h-53v606q0 176 -107 176q-75 0 -182 -186q-86 -147 -152.5 -325.5t-66.5 -258.5v-12h-53v510q0 68 75.5 120t75.5 93q0 49 -30 49 l-74 -72z"/>
<glyph unicode="ฒ" horiz-adv-x="1278" d="M72 0v610q0 88 58 150.5t144 73.5l125 -99l125 99q86 -11 144.5 -73.5t58.5 -150.5v-338q0 -86 75 -161.5t171 -75.5q180 0 180 205v579h53v-590q0 -239 -233 -239q-164 0 -246 145v-135h-53v600q0 70 -39 120t-98 64l-138 -114l-137 114q-59 -14 -98 -64t-39 -120v-512 l295 447h-125v49h180v-49l-350 -535h-53z"/>
<glyph unicode="ณ" horiz-adv-x="1237" d="M55 631q11 90 103 146.5t215 56.5q133 0 217 -58q96 -67 96 -194v-342q0 -205 180 -205q97 0 171.5 75.5t74.5 161.5v547h53v-819h-53v135q-82 -145 -246 -145q-233 0 -233 239v338q0 217 -262 217q-109 0 -181.5 -44t-78.5 -97q67 -41 67 -78q0 -14 -26.5 -47t-26.5 -57 v-412h147v-49h-200v461q0 31 27.5 63.5t27.5 42.5q0 21 -72 64z"/>
<glyph unicode="ด" horiz-adv-x="778" d="M72 0v582q0 125 100 194q88 58 217 58q131 0 217 -58q101 -69 101 -194v-582h-54v567q0 217 -264 217t-264 -217v-479l285 447h-125v49h180v-49l-340 -535h-53z"/>
<glyph unicode="ต" horiz-adv-x="799" d="M72 0v610q0 88 58 150.5t144 73.5l125 -99l125 99q86 -11 144.5 -73.5t58.5 -150.5v-610h-53v600q0 70 -39 120t-98 64l-138 -114l-137 114q-59 -14 -98 -64t-39 -120v-512l295 447h-125v49h180v-49l-350 -535h-53z"/>
<glyph unicode="ถ" horiz-adv-x="760" d="M55 631q11 90 103 146.5t215 56.5q133 0 217 -58q96 -67 96 -194v-582h-53v567q0 217 -262 217q-109 0 -181.5 -44t-78.5 -97q67 -41 67 -78q0 -14 -26.5 -47t-26.5 -57v-412h106v-49h-159v461q0 31 27.5 63.5t27.5 42.5q0 21 -72 64z"/>
<glyph unicode="ท" horiz-adv-x="758" d="M72 0v819h53v-188q117 200 317 200q244 0 244 -243v-588h-53v578q0 204 -201 204q-117 0 -212 -99t-95 -189v-494h-53z"/>
<glyph unicode="ธ" horiz-adv-x="700" d="M41 645q0 84 92 137q84 52 201 52q127 0 211 -48q102 -57 102 -172h-53q0 91 -86 136q-70 34 -174 34q-96 0 -164 -36q-76 -41 -76 -107q0 -57 97.5 -76.5t195.5 -36.5q125 -22 186 -67q86 -66 86 -193q0 -268 -288 -268h-310v440h54v-391h243q248 0 248 217 q0 103 -67 154q-50 37 -156 57q-113 21 -227 39q-115 37 -115 129z"/>
<glyph unicode="น" horiz-adv-x="758" d="M72 231v588h53v-577q0 -205 201 -205q123 0 219 102q88 94 88 187v493h53v-819h-53v188q-101 -198 -318 -198q-243 0 -243 241z"/>
<glyph unicode="บ" horiz-adv-x="758" d="M72 238v581h53v-565q0 -109 76 -166q67 -51 178 -51q110 0 178 51q76 57 76 166v565h53v-581q0 -125 -98 -193q-84 -55 -209 -55q-123 0 -207 55q-100 68 -100 193z"/>
<glyph unicode="ป" horiz-adv-x="758" d="M72 238v581h53v-565q0 -109 76 -166q67 -51 178 -51q110 0 178 51q76 57 76 166v821h53v-837q0 -125 -98 -193q-84 -55 -209 -55q-123 0 -207 55q-100 68 -100 193z"/>
<glyph unicode="ผ" horiz-adv-x="881" d="M72 223v488q0 47 32.5 77.5t83.5 30.5h33v-49h-22q-74 0 -74 -74v-456q0 -203 133 -203q156 0 156 252v530h53v-530q0 -252 156 -252q133 0 133 203v579h53v-596q0 -233 -176 -233q-144 0 -193 129q-49 -129 -192 -129q-176 0 -176 233z"/>
<glyph unicode="ฝ" horiz-adv-x="881" d="M72 223v488q0 47 32.5 77.5t83.5 30.5h33v-49h-22q-74 0 -74 -74v-456q0 -203 133 -203q156 0 156 252v530h53v-530q0 -252 156 -252q133 0 133 203v835h53v-852q0 -233 -176 -233q-144 0 -193 129q-49 -129 -192 -129q-176 0 -176 233z"/>
<glyph unicode="พ" horiz-adv-x="881" d="M72 223v596h53v-579q0 -203 133 -203q156 0 156 252v530h53v-530q0 -252 156 -252q133 0 133 203v579h53v-596q0 -233 -176 -233q-144 0 -193 129q-49 -129 -192 -129q-176 0 -176 233z"/>
<glyph unicode="ฟ" horiz-adv-x="881" d="M72 223v596h53v-579q0 -203 133 -203q156 0 156 252v530h53v-530q0 -252 156 -252q133 0 133 203v835h53v-852q0 -233 -176 -233q-144 0 -193 129q-49 -129 -192 -129q-176 0 -176 233z"/>
<glyph unicode="ภ" horiz-adv-x="768" d="M10 0v49h72v412q0 31 27.5 63.5t27.5 42.5q0 21 -71 64q10 90 102 146.5t215 56.5q133 0 217 -58q96 -67 96 -194v-582h-53v567q0 217 -262 217q-109 0 -181.5 -44t-78.5 -97q67 -41 67 -78q0 -14 -26.5 -47t-26.5 -57v-461h-125z"/>
<glyph unicode="ม" horiz-adv-x="758" d="M72 0v819h53v-493q0 -93 88 -187q96 -102 219 -102q201 0 201 205v577h53v-588q0 -241 -244 -241q-217 0 -317 198v-188h-53z"/>
<glyph unicode="ย" horiz-adv-x="762" d="M41 254q0 102 59 168q50 53 115 63q-162 15 -162 160q0 86 62.5 134t160.5 48q39 0 80 -8v-49q-39 6 -75 6q-175 0 -175 -129q0 -88 80 -117q45 -14 160 -14h291v303h53v-819h-284q-183 0 -248 29q-117 51 -117 225zM94 252q0 -141 96 -180q54 -23 213 -23h234v418h-291 q-110 0 -178 -51q-74 -56 -74 -164z"/>
<glyph unicode="ร" horiz-adv-x="690" d="M31 272h53q-8 -237 254 -237q258 0 258 211q0 100 -66 143q-43 27 -157 47q-183 31 -217 45q-105 43 -105 152q0 90 88 147q80 54 195 54q123 0 205 -48q98 -59 98 -172h-53q0 88 -82 134q-68 36 -168 36q-92 0 -158 -39q-72 -45 -72 -114q0 -72 84 -105q35 -12 189 -39 q133 -22 186 -57q86 -57 86 -182q0 -260 -311 -260q-315 0 -307 284z"/>
<glyph unicode="ฤ" horiz-adv-x="760" d="M55 631q11 90 103 146.5t215 56.5q133 0 217 -58q96 -67 96 -194v-826h-53v811q0 217 -262 217q-109 0 -181.5 -44t-78.5 -97q67 -41 67 -78q0 -14 -26.5 -47t-26.5 -57v-412h106v-49h-159v461q0 31 27.5 63.5t27.5 42.5q0 21 -72 64z"/>
<glyph unicode="ล" horiz-adv-x="764" d="M41 221q0 205 227 242q115 18 232 35q133 37 133 125q0 73 -64.5 117t-169.5 44q-100 0 -170 -41q-77 -45 -94 -129h-55q14 109 110 168q84 52 203 52q125 0 203 -48q96 -59 96 -182v-604h-53v524q-45 -71 -330 -102q-215 -23 -215 -201q0 -186 215 -186q56 0 111 14v-49 q-64 -8 -117 -8q-262 0 -262 229z"/>
<glyph unicode="ฦ" horiz-adv-x="768" d="M10 0v49h72v412q0 31 27.5 63.5t27.5 42.5q0 21 -71 64q10 90 102 146.5t215 56.5q133 0 217 -58q96 -67 96 -194v-826h-53v811q0 217 -262 217q-109 0 -181.5 -44t-78.5 -97q67 -41 67 -78q0 -14 -26.5 -47t-26.5 -57v-461h-125z"/>
<glyph unicode="ว" horiz-adv-x="754" d="M41 246h57q58 -211 271 -211q290 0 290 375q0 374 -290 374q-213 0 -271 -211h-57q63 261 328 261q155 0 243 -97q101 -108 101 -327q0 -220 -101 -328q-88 -94 -243 -94q-265 0 -328 258z"/>
<glyph unicode="ศ" horiz-adv-x="758" d="M72 0v582q0 125 100 194q84 58 207 58q84 0 149 -29q19 14 43 76h60q-6 -56 -56 -99q111 -71 111 -200v-582h-53v567q0 109 -76 166q-68 51 -178 51q-111 0 -178 -51q-76 -57 -76 -166v-98h250v-49h-250v-420h-53z"/>
<glyph unicode="ษ" horiz-adv-x="768" d="M72 238v581h53v-565q0 -109 76 -166q67 -51 178 -51q110 0 178 51q76 57 76 166v201h-254v106h53v-57h201v315h53v-315h62v-49h-62v-217q0 -125 -98 -193q-84 -55 -209 -55q-123 0 -207 55q-100 68 -100 193z"/>
<glyph unicode="ส" horiz-adv-x="764" d="M41 221q0 205 227 242q115 18 232 35q133 37 133 125q0 73 -64.5 117t-169.5 44q-100 0 -170 -41q-77 -45 -94 -129h-55q14 109 110 168q84 52 203 52q94 0 166 -29q31 37 37 76h59q-6 -58 -49 -101q86 -59 86 -176v-604h-53v524q-45 -71 -330 -102q-215 -23 -215 -201 q0 -186 215 -186q56 0 111 14v-49q-64 -8 -117 -8q-262 0 -262 229z"/>
<glyph unicode="ห" horiz-adv-x="758" d="M72 0v819h53v-280q117 200 317 200q244 0 244 -243v-496h-53v485q0 205 -201 205q-117 0 -212 -99t-95 -190v-401h-53zM317 770v49h328v-49h-328z"/>
<glyph unicode="ฬ" horiz-adv-x="881" d="M72 223v596h53v-579q0 -203 133 -203q156 0 156 252v428h53v-428q0 -252 156 -252q133 0 133 203v424q0 63 -41 109t-101 46h-200v47h198q72 0 118 38t42 114h51q8 -74 -37 -120t-116 -58q139 -29 139 -191v-426q0 -233 -176 -233q-144 0 -193 129q-49 -129 -192 -129 q-176 0 -176 233z"/>
<glyph unicode="อ" horiz-adv-x="844" d="M41 410q0 61 8 102h225v-49h-178q-2 -17 -2 -53q0 -187 94 -285q86 -90 234 -90q147 0 233 90q95 98 95 285q0 186 -95 284q-86 90 -233 90q-207 0 -287 -170h-59q88 220 346 220q168 0 270 -101q111 -112 111 -323t-111 -322q-102 -100 -270 -100t-270 100 q-111 111 -111 322z"/>
<glyph unicode="ฮ" horiz-adv-x="844" d="M41 410q0 61 8 102h225v-49h-178q-2 -17 -2 -53q0 -187 94 -285q86 -90 234 -90q147 0 233 90q95 98 95 285q0 186 -95 284q-86 90 -233 90q-207 0 -287 -170h-59q88 220 346 220q84 0 151 -27q33 27 39 74h60q-8 -56 -49 -97q180 -102 180 -374q0 -211 -111 -322 q-102 -100 -270 -100t-270 100q-111 111 -111 322z"/>
<glyph unicode="ฯ" horiz-adv-x="682" d="M41 670q0 75 65 121q58 36 136 36q45 0 77 -14v-51q-30 18 -77 18q-60 0 -103 -26q-47 -33 -47 -86q0 -58 45 -91.5t109 -33.5q260 0 307 276h57v-819h-51v717q-14 -84 -92 -148q-90 -73 -219 -73q-80 0 -139 41q-68 49 -68 133z"/>
<glyph unicode="ะ" horiz-adv-x="246" d="M31 174q0 39 26.5 65.5t65.5 26.5t65.5 -26.5t26.5 -65.5t-26.5 -65.5t-65.5 -26.5t-65.5 26.5t-26.5 65.5zM31 645q0 39 26.5 65.5t65.5 26.5t65.5 -26.5t26.5 -65.5t-26.5 -65.5t-65.5 -26.5t-65.5 26.5t-26.5 65.5zM76 174q0 -47 47 -47t47 47t-47 47t-47 -47zM76 645 q0 -47 47 -47t47 47t-47 47t-47 -47z"/>
<glyph unicode="ั" d="M-332 922v108h56v-59h426v-49h-482z"/>
<glyph unicode="า" horiz-adv-x="379" d="M20 770v49q31 6 62 6q92 0 154 -41q71 -47 71 -135v-649h-53v629q0 145 -174 145q-29 0 -60 -4z"/>
<glyph unicode="ำ" horiz-adv-x="379" d="M-184 1008q0 36 24.5 61t61.5 25t61.5 -25t24.5 -61q0 -37 -24.5 -61.5t-61.5 -24.5t-61.5 24.5t-24.5 61.5zM-147 1008q0 -50 49 -50t49 50q0 49 -49 49t-49 -49zM20 770v49q31 6 62 6q92 0 154 -41q71 -47 71 -135v-649h-53v629q0 145 -174 145q-29 0 -60 -4z"/>
<glyph unicode="ิ" d="M-653 922v49h583v-49h-583z"/>
<glyph unicode="ี" d="M-653 922v49h530v104h53v-153h-583z"/>
<glyph unicode="ึ" d="M-653 922v49h477q-6 16 -6 33q0 32 25.5 56.5t60.5 24.5t59.5 -23.5t24.5 -57.5q0 -33 -24.5 -57.5t-59.5 -24.5h-557zM-141 1004q0 -46 43 -46q45 0 45 46q0 43 -45 43q-43 0 -43 -43z"/>
<glyph unicode="ื" d="M-653 922v49h415v104h54v-104h61v104h53v-153h-583z"/>
<glyph unicode="ุ" d="M-184 -80h114v-215h-53v166h-61v49z"/>
<glyph unicode="ู" d="M-414 -80h95v-104q0 -74 98 -74t98 74v104h53v-110q0 -115 -151 -115q-152 0 -152 115v61h-41v49z"/>
<glyph unicode="ฺ" d="M-150 -133q0 53 54 53q53 0 53 -53t-53 -53q-54 0 -54 53z"/>
<glyph unicode="฻"/>
<glyph unicode="฼"/>
<glyph unicode="฽"/>
<glyph unicode="฾"/>
<glyph unicode="฿" horiz-adv-x="836" d="M84 0v965h297v131h43v-131h37q157 0 235 -78q64 -66 64 -172q0 -80 -50.5 -138.5t-131.5 -68.5v-2q45 6 116 -43q99 -68 99 -193q0 -129 -90.5 -199.5t-241.5 -70.5h-37v-139h-43v139h-297zM143 51h238v424h-238v-424zM143 526h238v387h-238v-387zM424 51h37 q129 0 201.5 56.5t72.5 162.5q0 205 -274 205h-37v-424zM424 526h37q117 0 179 54.5t62 144.5q0 188 -241 188h-37v-387z"/>
<glyph unicode="เ" horiz-adv-x="258" d="M102 0v819h54v-819h-54z"/>
<glyph unicode="แ" horiz-adv-x="455" d="M102 0v819h54v-819h-54zM299 0v819h53v-819h-53z"/>
<glyph unicode="โ" horiz-adv-x="287" d="M29 1182q0 88 141 88h242v-49h-222q-108 0 -108 -43q0 -23 47 -62t47 -100v-1016h-53v999q0 58 -47 97t-47 86z"/>
<glyph unicode="ใ" horiz-adv-x="287" d="M-98 1094q-11 73 43.5 124.5t144.5 51.5q182 0 182 -135q0 -45 -48 -92.5t-48 -98.5v-944h-53v948q0 64 47 111t47 76q0 86 -127 86q-74 0 -108.5 -38t-26.5 -89h-53z"/>
<glyph unicode="ไ" horiz-adv-x="287" d="M-137 1194l37 33l96 -56l80 50h39q116 0 118 -76q0 -29 -28.5 -65t-28.5 -68v-1012h-53v1020q0 39 29.5 71.5t29.5 45.5q-2 37 -69 37h-35l-82 -54z"/>
<glyph unicode="ๅ" horiz-adv-x="379" d="M20 770v49q31 6 62 6q92 0 154 -41q71 -47 71 -135v-893h-53v873q0 145 -174 145q-29 0 -60 -4z"/>
<glyph unicode="ๆ" horiz-adv-x="686" d="M41 629q0 80 66.5 135t166.5 55l142 -147l141 147h57v-1063h-53v1000l-145 -158l-160 168q-66 -2 -113 -41t-47 -96q0 -72 56 -107q43 -28 98 -22v-51q-92 0 -148 43q-61 47 -61 137z"/>
<glyph unicode="็" d="M-627 1020q0 51 47.5 86t130.5 35h381v-49h-368q-135 0 -135 -72q0 -29 22 -49h103l172 71l174 -71v-49l-174 73l-166 -73h-131q-56 34 -56 98z"/>
<glyph unicode="่" d="M-123 1137v123h53v-123h-53z"/>
<glyph unicode="้" d="M-303 1221v45h37q78 0 78 -58v-24h235v-47h-285v45q0 39 -34 39h-31z"/>
<glyph unicode="๊" d="M-332 1137v59q0 107 117 107h6l86 -62l84 62h8q49 0 83 -29t34 -78v-12h86v-47h-135v51q0 69 -62 69h-8l-90 -69l-92 69h-6q-64 0 -64 -69v-4h74v-47h-121z"/>
<glyph unicode="๋" d="M-201 1214v39h78v78h53v-78h76v-39h-76v-77h-53v77h-78z"/>
<glyph unicode="์" d="M-215 1073v23q0 98 98 98h105v-49h-80q-68 0 -68 -55v-17h-55z"/>
<glyph unicode="ํ" d="M-184 1008q0 36 24.5 61t61.5 25t61.5 -25t24.5 -61q0 -37 -24.5 -61.5t-61.5 -24.5t-61.5 24.5t-24.5 61.5zM-147 1008q0 -50 49 -50t49 50q0 49 -49 49t-49 -49z"/>
<glyph unicode="๎" d="M-457 1110q-2 61 66 104q59 37 125 41v7q-62 22 -62 86q0 77 113 125q96 40 242 32v-47q-23 2 -45 2q-97 0 -170 -28q-82 -33 -82 -86q0 -76 120 -70v-45q-92 2 -169 -29q-91 -37 -82 -94q6 -43 75 -43q56 0 109 27l22 -39q-86 -39 -157 -31q-101 12 -105 88z"/>
<glyph unicode="๏" horiz-adv-x="963" d="M61 410q0 174 123 296.5t297 122.5t297 -122.5t123 -296.5t-123 -296t-297 -122t-297 122t-123 296zM123 410q0 -148 105.5 -253.5t252.5 -105.5q148 0 253.5 105.5t105.5 253.5q0 147 -105.5 252.5t-253.5 105.5q-147 0 -252.5 -105.5t-105.5 -252.5zM225 410 q0 106 75 181t181 75q107 0 181.5 -75t74.5 -181q0 -107 -74.5 -181.5t-181.5 -74.5q-106 0 -181 74.5t-75 181.5z"/>
<glyph unicode="๐" horiz-adv-x="713" d="M41 307q0 133 92 226.5t223 93.5t223.5 -93.5t92.5 -226.5t-92.5 -225t-223.5 -92t-223 92t-92 225zM88 307q0 -112 78 -191t188 -79q111 0 189 79t78 191q0 113 -78 192t-189 79q-110 0 -188 -79t-78 -192z"/>
<glyph unicode="๑" horiz-adv-x="762" d="M41 330q0 131 102 217q97 80 230 80q147 0 247.5 -86t100.5 -228q0 -153 -125 -270q-113 -102 -258 -125l-25 47q136 19 240 111q115 104 115 237q0 117 -85 191t-208 74q-113 0 -197 -71t-84 -177q0 -78 50.5 -134.5t125.5 -56.5q35 0 70 11q-98 34 -98 124 q0 54 37.5 93t91.5 39q53 0 91 -39t38 -93q0 -79 -66.5 -134.5t-163.5 -55.5q-100 0 -164.5 70.5t-64.5 175.5zM289 274q0 -32 24.5 -56.5t57.5 -24.5q35 0 58.5 24.5t23.5 56.5q0 35 -23.5 58.5t-58.5 23.5q-33 0 -57.5 -23.5t-24.5 -58.5z"/>
<glyph unicode="๒" horiz-adv-x="1053" d="M-6 793l20 45q131 -15 131 -129v-525q0 -55 31 -95t84 -40h553q53 0 84 40t31 95v252q0 137 -135 137q-50 0 -89.5 -33.5t-39.5 -80.5v-303h-54v305q0 51 -45 81.5t-102 30.5q-70 0 -115 -35.5t-45 -103.5v-78q25 21 62 21q49 0 82.5 -34t33.5 -83t-33.5 -82t-82.5 -33 q-48 0 -81.5 33t-33.5 82v174q0 90 61.5 139.5t151.5 49.5q110 0 176 -82q55 82 160 82q82 0 132 -46.5t50 -130.5v-274q0 -74 -45 -123t-117 -49h-565q-72 0 -117 49t-45 123v518q0 96 -98 103zM297 260q0 -29 19.5 -49.5t48.5 -20.5q69 0 69 70q0 29 -20.5 49.5 t-48.5 20.5q-27 0 -47.5 -20.5t-20.5 -49.5z"/>
<glyph unicode="๓" horiz-adv-x="915" d="M72 119v299q0 96 69 153q62 52 154 52q135 0 186 -101q51 101 170 101q84 0 138.5 -51.5t54.5 -139.5v-432h-53v422q0 74 -40 112.5t-100 38.5q-59 0 -102 -36.5t-43 -92.5v-444h-53v449q0 59 -48.5 91.5t-109.5 32.5q-74 0 -122 -43t-48 -110v-193q31 21 76 21 q53 0 91 -38t38 -91q0 -56 -38 -91.5t-91 -35.5q-54 0 -91.5 35.5t-37.5 91.5zM119 119q0 -35 23.5 -59.5t58.5 -24.5t58.5 24.5t23.5 59.5t-23.5 58.5t-58.5 23.5q-33 0 -57.5 -23.5t-24.5 -58.5z"/>
<glyph unicode="๔" horiz-adv-x="823" d="M41 299q-2 141 90 232.5t227 91.5q62 0 127.5 -4.5t106.5 -4.5q72 0 127 86q49 78 51 160h53q2 -108 -63 -201q-70 -98 -168 -98q-41 0 -108.5 4t-125.5 4q-112 0 -189 -75.5t-75 -194.5q2 -121 84 -193q72 -67 174 -67q54 0 117 15.5t88 15.5l2 2q-57 14 -106 63 q-60 58 -60 131q0 58 39 97.5t92 39.5q54 0 91.5 -37.5t37.5 -93.5q0 -51 -35.5 -88t-87.5 -41q37 -43 156 -65q47 -8 66 -15q39 -12 59 -28l-33 -41q-63 35 -164 35q-34 0 -116 -18.5t-154 -18.5q-123 0 -207 76q-94 86 -96 231zM442 272q0 -32 25 -57t57 -25q35 0 58.5 25 t23.5 57q0 35 -24.5 59.5t-57.5 24.5q-32 0 -57 -24.5t-25 -59.5z"/>
<glyph unicode="๕" horiz-adv-x="823" d="M41 299q-2 133 81 222t208 100q-33 28 -33 77q0 56 39 93.5t100 37.5q62 0 100.5 -36.5t38.5 -94.5q0 -53 -36 -82q16 -2 53 -2q72 0 127 86q49 78 51 160h53q2 -108 -63 -201q-70 -98 -168 -98q-41 0 -108.5 4t-125.5 4q-112 0 -189 -75.5t-75 -194.5q2 -121 84 -193 q72 -67 174 -67q54 0 117 15.5t88 15.5l2 2q-57 14 -106 63q-60 58 -60 131q0 58 39 97.5t92 39.5q54 0 91.5 -37.5t37.5 -93.5q0 -51 -35.5 -88t-87.5 -41q37 -43 156 -65q47 -8 66 -15q39 -12 59 -28l-33 -41q-63 35 -164 35q-34 0 -116 -18.5t-154 -18.5q-123 0 -207 76 q-92 86 -96 231zM350 698q0 -32 25.5 -56t60.5 -24t60.5 24t25.5 56q0 33 -25.5 57.5t-60.5 24.5t-60.5 -24.5t-25.5 -57.5zM442 272q0 -32 25 -57t57 -25q35 0 58.5 25t23.5 57q0 35 -24.5 59.5t-57.5 24.5q-32 0 -57 -24.5t-25 -59.5z"/>
<glyph unicode="๖" horiz-adv-x="770" d="M-84 809l45 33q158 -135 180 -318q90 101 254 101q142 0 238 -88t96 -226q0 -141 -101.5 -232t-248.5 -91q-133 0 -221 71.5t-88 165.5q0 58 37.5 95.5t93.5 37.5q53 0 91 -37.5t38 -93.5q0 -51 -36 -87t-93 -40q69 -61 178 -61q125 0 211 77t86 195q0 111 -83 184.5 t-198 73.5q-86 0 -157 -39q-60 -32 -84 -77h-52q-28 209 -186 356zM119 227q0 -32 24.5 -57t57.5 -25q35 0 58.5 25t23.5 57q0 35 -23.5 59.5t-58.5 24.5t-58.5 -24.5t-23.5 -59.5z"/>
<glyph unicode="๗" horiz-adv-x="1122" d="M72 119v299q0 96 69 153q62 52 154 52q135 0 186 -101q51 101 170 101q84 0 138.5 -51.5t54.5 -139.5v-379q63 15 114 86q58 84 66 205q4 57 -4 131q-8 86 -8 115q0 39 6 78q18 108 100 176l41 -33q-72 -53 -88 -152q-6 -36 -6 -73q0 -31 8 -117q8 -72 4 -123 q-12 -141 -76.5 -232t-158.5 -114h-51v422q0 74 -40 112.5t-100 38.5q-59 0 -102 -36.5t-43 -92.5v-444h-53v449q0 59 -48.5 91.5t-109.5 32.5q-74 0 -122 -43t-48 -110v-193q31 21 76 21q53 0 91 -38t38 -91q0 -56 -38 -91.5t-91 -35.5q-54 0 -91.5 35.5t-37.5 91.5z M119 119q0 -35 23.5 -59.5t58.5 -24.5t58.5 24.5t23.5 59.5t-23.5 58.5t-58.5 23.5q-33 0 -57.5 -23.5t-24.5 -58.5z"/>
<glyph unicode="๘" horiz-adv-x="840" d="M41 324q0 139 89 219t237 80q36 0 126.5 -16.5t131.5 -16.5q71 0 116 88q35 70 45 166h54q-11 -113 -56 -199q-59 -108 -153 -108q-49 0 -130 16t-136 16q-121 0 -196 -65.5t-75 -179.5q0 -103 58 -181q51 -71 116 -90l117 164q115 -174 197 -174q53 0 116 90 q-51 -8 -95 24.5t-44 92.5q0 47 34 82t81 35q49 0 85 -34t36 -85q0 -90 -76 -174t-148 -84q-79 0 -190 139l-94 -139q-111 28 -174 110q-72 90 -72 224zM606 250q0 -27 20.5 -47.5t47.5 -20.5q28 0 47.5 20.5t19.5 47.5q0 29 -19.5 48t-47.5 19q-27 0 -47.5 -19t-20.5 -48z "/>
<glyph unicode="๙" horiz-adv-x="934" d="M41 313q0 133 88 223.5t217 90.5q143 0 246 -117q24 115 131 117q100 2 139 -76q51 90 51 235q0 31 -4 62h54q4 -33 4 -68q0 -192 -93 -315l-38 16q-2 31 -31 61.5t-74 30.5q-49 0 -73.5 -37.5t-22.5 -86.5q110 -175 141 -445l-53 -6q-72 575 -377 575q-106 0 -179 -76.5 t-73 -189.5q0 -114 66.5 -192t150.5 -78q-63 39 -63 113q0 53 38 91t91 38t91 -38t38 -91q0 -72 -57.5 -116t-131.5 -44q-133 0 -208 98q-68 90 -68 225zM295 150q0 -35 24.5 -59.5t57.5 -24.5t57.5 24.5t24.5 59.5q0 34 -23.5 57.5t-58.5 23.5q-33 0 -57.5 -23.5 t-24.5 -57.5z"/>
<glyph unicode="๚" horiz-adv-x="815" d="M41 670q0 75 65 121q58 36 136 36q45 0 77 -14v-51q-30 18 -77 18q-60 0 -103 -26q-47 -33 -47 -86q0 -58 45 -91.5t109 -33.5q260 0 307 276h57v-819h-51v717q-14 -84 -92 -148q-90 -73 -219 -73q-80 0 -139 41q-68 49 -68 133zM692 0v819h51v-819h-51z"/>
<glyph unicode="๛" horiz-adv-x="1393" d="M61 414q0 143 66 240.5t166 97.5q82 0 137 -70t55 -170q0 -78 -30.5 -127t-83.5 -49q-41 0 -70 33.5t-29 81.5q0 47 29 81.5t68 34.5q37 0 55 -16q-8 70 -45 112t-84 42q-76 0 -129 -83t-53 -216q0 -132 60 -206.5t155 -74.5q106 0 187 106.5t103 286.5q9 66 33 66 q58 0 97 -238l8 -2q8 29 20 145q8 74 33 74q22 0 51 -62.5t45 -140.5h8q7 52 13 103q8 61 24 61q35 0 101 -168q4 11 22 90q10 48 31 48q18 0 35.5 -37t34.5 -72q20 76 45 72l110 -15q31 -4 31 -8q0 -8 -31 -10l-123 -10q-20 -62 -35 -62q-14 0 -34 47q-29 64 -33 72 q-8 -43 -19 -84q-14 -59 -34 -59q-17 0 -41 59q-35 78 -47 96q-11 -55 -19 -110q-14 -68 -35 -68q-20 0 -45 78q-30 96 -49 123q-22 -227 -74 -227q-14 0 -20 32q-14 72 -23 103q-18 71 -39 112l-2 -18q-22 -201 -122.5 -314.5t-219.5 -113.5q-112 0 -183 92t-71 242z M313 453q0 -29 17.5 -49.5t38.5 -20.5q57 0 57 70q0 69 -57 69q-21 0 -38.5 -20.5t-17.5 -48.5z"/>
<glyph unicode=" " horiz-adv-x="753"/>
<glyph unicode=" " horiz-adv-x="1506"/>
<glyph unicode=" " horiz-adv-x="753"/>
<glyph unicode=" " horiz-adv-x="1506"/>
<glyph unicode=" " horiz-adv-x="502"/>
<glyph unicode=" " horiz-adv-x="376"/>
<glyph unicode=" " horiz-adv-x="251"/>
<glyph unicode=" " horiz-adv-x="251"/>
<glyph unicode=" " horiz-adv-x="188"/>
<glyph unicode=" " horiz-adv-x="301"/>
<glyph unicode=" " horiz-adv-x="83"/>
<glyph unicode="​"/>
<glyph unicode="‐" horiz-adv-x="475" d="M94 342v51h289v-51h-289z"/>
<glyph unicode="‑" horiz-adv-x="475" d="M94 342v51h289v-51h-289z"/>
<glyph unicode="‒" horiz-adv-x="475" d="M94 342v51h289v-51h-289z"/>
<glyph unicode="–" horiz-adv-x="748" d="M61 315v52h625v-52h-625z"/>
<glyph unicode="—" horiz-adv-x="1495" d="M61 315v52h1373v-52h-1373z"/>
<glyph unicode="‘" horiz-adv-x="322" d="M82 846q0 115 113 184l32 -22q-34 -23 -62 -62t-32 -67q19 8 41 8q25 0 45.5 -19.5t20.5 -46.5q0 -28 -21.5 -49.5t-50.5 -21.5q-86 0 -86 96z"/>
<glyph unicode="’" horiz-adv-x="322" d="M82 958q0 29 21.5 50.5t50.5 21.5q86 0 86 -96q0 -115 -113 -184l-33 22q35 23 62.5 61.5t31.5 67.5q-18 -8 -41 -8q-24 0 -44.5 19.5t-20.5 45.5z"/>
<glyph unicode="‚" d="M-788 922v49h509v104h54v-153h-563z"/>
<glyph unicode="" d="M-788 922v49h509v104h54v-153h-563z"/>
<glyph unicode="“" horiz-adv-x="549" d="M82 846q0 115 113 184l32 -22q-34 -23 -62 -62t-32 -67q19 8 41 8q25 0 45.5 -19.5t20.5 -46.5q0 -28 -21.5 -49.5t-50.5 -21.5q-86 0 -86 96zM309 846q0 115 113 184l33 -22q-35 -23 -62.5 -62t-32.5 -67q19 8 41 8q25 0 45.5 -19.5t20.5 -46.5q0 -28 -21.5 -49.5 t-50.5 -21.5q-86 0 -86 96z"/>
<glyph unicode="”" horiz-adv-x="549" d="M82 958q0 29 21.5 50.5t50.5 21.5q86 0 86 -96q0 -115 -113 -184l-33 22q35 23 62.5 61.5t31.5 67.5q-18 -8 -41 -8q-24 0 -44.5 19.5t-20.5 45.5zM309 958q0 29 21.5 50.5t50.5 21.5q86 0 86 -96q0 -115 -113 -184l-32 22q34 23 62 61.5t32 67.5q-19 -8 -41 -8 q-25 0 -45.5 19.5t-20.5 45.5z"/>
<glyph unicode="„" d="M-788 922v49h395v104h53v-104h61v104h54v-153h-563z"/>
<glyph unicode="" d="M-788 922v49h395v104h53v-104h61v104h54v-153h-563z"/>
<glyph unicode="†" d="M-324 922v153h54v-153h-54z"/>
<glyph unicode="" d="M-324 922v153h54v-153h-54z"/>
<glyph unicode="‡" d="M-424 1012v51h33q92 0 92 -72v-20h299v-49h-352v47q0 43 -39 43h-33z"/>
<glyph unicode="" d="M-424 1012v51h33q92 0 92 -72v-20h299v-49h-352v47q0 43 -39 43h-33z"/>
<glyph unicode="•" horiz-adv-x="737" d="M61 410q0 127 90.5 217t217.5 90t217 -90t90 -217t-90 -217.5t-217 -90.5t-217.5 90.5t-90.5 217.5z"/>
<glyph unicode="…" horiz-adv-x="866" d="M82 51q0 64 61 64q64 0 64 -64q0 -59 -64 -59q-61 0 -61 59zM371 51q0 64 61 64q64 0 64 -64q0 -59 -64 -59q-61 0 -61 59zM659 51q0 64 62 64q63 0 63 -64q0 -59 -63 -59q-62 0 -62 59z"/>
<glyph unicode=" " horiz-adv-x="301"/>
<glyph unicode="‰" d="M-473 1020v45h98v98h53v-98h99v-45h-99v-98h-53v98h-98z"/>
<glyph unicode="" d="M-473 1020v45h98v98h53v-98h99v-45h-99v-98h-53v98h-98z"/>
<glyph unicode="‹" d="M-123 922v153h53v-153h-53z"/>
<glyph unicode="" d="M-123 922v153h53v-153h-53z"/>
<glyph unicode="›" d="M-279 1137v123h54v-123h-54z"/>
<glyph unicode="" d="M-279 1137v123h54v-123h-54z"/>
<glyph unicode=" " horiz-adv-x="376"/>
<glyph unicode="€" horiz-adv-x="680" d="M0 614q8 93 94 156.5t215 63.5q88 0 152 -33q39 26 45 80h59q-2 -60 -59 -107q133 -94 133 -305q0 -236 -113 -363q-104 -116 -276 -108l-125 500l-29 34h74l121 -487q133 8 214 119.5t81 304.5q0 147 -76 231t-201 84q-100 0 -170.5 -46t-85.5 -124h-53z"/>
<glyph unicode="" horiz-adv-x="680" d="M0 614q8 93 94 156.5t215 63.5q88 0 152 -33q39 26 45 80h59q-2 -60 -59 -107q133 -94 133 -305q0 -236 -113 -363q-104 -116 -276 -108l-125 500l-29 34h74l121 -487q133 8 214 119.5t81 304.5q0 147 -76 231t-201 84q-100 0 -170.5 -46t-85.5 -124h-53z"/>
<glyph unicode="™" d="M-336 1008q0 36 24.5 61t61.5 25t61.5 -25t24.5 -61q0 -37 -24.5 -61.5t-61.5 -24.5t-61.5 24.5t-24.5 61.5zM-299 1008q0 -50 49 -50t49 50q0 49 -49 49t-49 -49z"/>
<glyph unicode="" d="M-336 1008q0 36 24.5 61t61.5 25t61.5 -25t24.5 -61q0 -37 -24.5 -61.5t-61.5 -24.5t-61.5 24.5t-24.5 61.5zM-299 1008q0 -50 49 -50t49 50q0 49 -49 49t-49 -49z"/>
<glyph unicode="◌" horiz-adv-x="1372" d="M100 590l152 74q-6 -41 -6 -82q0 -37 6 -70zM264 168l58 162q43 -64 104 -109zM287 1006l153 -56q-63 -41 -108 -102zM608 1020l78 154l76 -152q-37 4 -72 4q-41 0 -82 -6zM614 141q37 -6 76 -6q35 0 66 6l-70 -141zM942 950l166 56l-57 -160q-45 61 -109 104zM946 215 q58 41 98 94l41 -141zM1128 657l146 -73l-144 -68q7 33 7 66q0 39 -9 75z"/>
<glyph unicode="◼" horiz-adv-x="695" d="M0 0v695h695v-695h-695z"/>
<glyph unicode="" d="M-788 922v49h563v-49h-563z"/>
<glyph unicode="" d="M-592 922v65q0 117 131 117h6l97 -70l94 70h8q131 0 131 -117v-16h117v-49h-170v57q0 76 -72 76h-8l-100 -76l-103 76h-6q-72 0 -72 -76v-8h82v-49h-135z"/>
<glyph unicode="" d="M-203 922v26q0 99 99 99h104v-50h-78q-67 0 -67 -55v-20h-58z"/>
<glyph unicode="" horiz-adv-x="1237" d="M55 631q11 90 103 146.5t215 56.5q133 0 217 -58q96 -67 96 -194v-349q0 -196 213 -196t213 196v586h53v-602q0 -123 -90 -182q-69 -45 -176 -45q-104 0 -176 45q-90 59 -90 182v350q0 217 -262 217q-109 0 -181.5 -44t-78.5 -97q67 -41 67 -78q0 -14 -26.5 -47 t-26.5 -57v-412h147v-49h-200v461q0 31 27.5 63.5t27.5 42.5q0 21 -72 64z"/>
<glyph unicode="" d="M-502 1137v59q0 107 117 107h6l86 -62l84 62h8q51 0 85 -29t34 -78v-12h84v-47h-133v51q0 69 -64 69h-8l-90 -69l-92 69h-6q-64 0 -64 -69v-4h74v-47h-121z"/>
<glyph unicode="" d="M-184 -346h114v-215h-53v166h-61v49z"/>
<glyph unicode="" d="M-414 -346h95v-105q0 -73 98 -73t98 73v105h53v-111q0 -114 -151 -114q-152 0 -152 114v62h-41v49z"/>
<glyph unicode="" d="M-176 -399q0 53 53 53t53 -53q0 -54 -53 -54t-53 54z"/>
<glyph unicode="" horiz-adv-x="864" d="M10 0v49h72v412q0 31 27.5 63.5t27.5 42.5q0 21 -71 64q10 90 102 146.5t215 56.5q133 0 217 -58q96 -67 96 -194v-887h-53l-151 151l-152 -151h-203v49h185l170 168l151 -150v805q0 217 -262 217q-109 0 -181.5 -44t-78.5 -97q67 -41 67 -78q0 -14 -26.5 -47t-26.5 -57 v-461h-125z"/>
<glyph unicode="" horiz-adv-x="864" d="M10 0v49h72v412q0 31 27.5 63.5t27.5 42.5q0 21 -71 64q10 90 102 146.5t215 56.5q133 0 217 -58q96 -67 96 -194v-887h-53l-106 139l-107 -139l-106 139l-107 -139h-141v49h114l134 168l106 -137l107 137l106 -139v794q0 217 -262 217q-109 0 -181.5 -44t-78.5 -97 q67 -41 67 -78q0 -14 -26.5 -47t-26.5 -57v-461h-125z"/>
<glyph unicode="" horiz-adv-x="929" d="M72 223v596h53v-579q0 -203 133 -203q156 0 156 252v428h53v-428q0 -252 156 -252q133 0 133 203v424q0 63 -41 109t-101 46h-200v47h198q72 0 118 38t42 114h51q8 -74 -37 -120t-116 -58q139 -29 139 -191v-426q0 -233 -176 -233q-144 0 -193 129q-49 -129 -192 -129 q-176 0 -176 233z"/>
<glyph horiz-adv-x="476" d="M-588 1008q0 36 24.5 61t61.5 25t61.5 -25t24.5 -61q0 -37 -24.5 -61.5t-61.5 -24.5t-61.5 24.5t-24.5 61.5zM-551 1008q0 -50 49 -50t49 50q0 49 -49 49t-49 -49zM20 770v49q31 6 62 6q92 0 154 -41q71 -47 71 -135v-649h-53v629q0 145 -174 145q-29 0 -60 -4z"/>
<glyph d="M-633 1100q0 82 109 133q-31 24 -31 59q0 72 90 119q78 41 156 41q63 0 127 -20q20 -9 20 -29q0 -33 -31 -33q-4 0 -10 2q-53 19 -106 19q-47 0 -111 -27q-74 -33 -74 -72q0 -14 76 -43q25 -8 25 -28q0 -31 -33 -31q-2 0 -9 1t-11 1q-39 0 -81 -33t-42 -59 q0 -33 28.5 -53.5t69.5 -20.5q84 0 119 61q8 17 24 17q33 0 33 -31q0 -6 -4 -14q-53 -94 -172 -94q-59 0 -107 30q-55 39 -55 105z"/>
</font>
</defs>
</svg>
